<?xml version="1.0" encoding="utf-8"?>
<!-- Generator: Adobe Adobe Illustrator 24.2.0, SVG Export Plug-In . SVG Version: 6.00 Build 0)  -->
<svg version="1.1" id="Layer_1" xmlns="http://www.w3.org/2000/svg" xmlns:xlink="http://www.w3.org/1999/xlink" x="0px" y="0px"
	 width="800px" height="600px" viewBox="0 0 800 600" style="enable-background:new 0 0 800 600;" xml:space="preserve">
<style type="text/css">
	.st0{fill:none;stroke:#000000;stroke-width:18;stroke-linecap:round;stroke-miterlimit:10;stroke-dasharray:0,0,0,0,0,0;}
	
		.st1{fill:none;stroke:#000000;stroke-width:18;stroke-linecap:round;stroke-linejoin:round;stroke-miterlimit:10;stroke-dasharray:0,0,0,0,0,0;}
	.st2{stroke:#000000;stroke-width:18;stroke-linecap:round;stroke-miterlimit:10;stroke-dasharray:0,0,0,0,0,0;}
</style>
<circle class="st0" cx="379.9" cy="196.15" r="77.89"/>
<path class="st0" d="M406.04,212.73c1.05-4.98,5.84-8.9,10.93-8.96c5.09-0.06,9.96,3.75,11.14,8.7"/>
<path class="st0" d="M335.44,215.32c1.05-4.98,5.84-8.9,10.93-8.96c5.09-0.06,9.96,3.75,11.14,8.7"/>
<path class="st0" d="M360.71,120.64c28.86-7.77,42.24,5.86,45.93,17.9c2.75,8.99-0.03,19.63-7.33,25.56
	c-7.3,5.93-18.82,6.28-26.03,0.25c-4.83-4.04-7.18-16.48-1.42-19.03"/>
<path class="st0" d="M457.98,183.03c5.63-4.96,14.99-4.92,20.59,0.08c5.6,5,6.68,14.29,2.39,20.45c-4.29,6.16-13.39,8.35-20.01,4.83
	"/>
<path class="st0" d="M301.54,184.72c-5.63-4.96-14.99-4.92-20.59,0.08c-5.6,5-6.68,14.29-2.39,20.45
	c4.29,6.16,13.39,8.35,20.01,4.83"/>
<path class="st0" d="M252.07,216.22c-5.02-61.38,48.36-140.17,129.48-143.14c76.5-2.81,135.07,58.29,133.96,126.11
	c-0.77,47.44-32.06,79.93-86.78,105.75c-36.33,17.14-96.76,66.25-103.88,118.52"/>
<path class="st1" d="M522.55,254.77c4.91,133.88-8.39,255.11-124.38,259.37C289.46,518.13,243.94,439.51,250,248.15
	c3.91,20.39,19.69,34.99,36.51,47.15s54.29,28.05,74.88,25.38"/>
<path class="st1" d="M308.51,303.36c-0.05-16.51,12.73-35.56,28.7-39.72"/>
<path class="st1" d="M426.88,258.28c12.66,0.52,26.24,18.38,26.9,31.03"/>
<circle class="st2" cx="384.96" cy="238.3" r="0.81"/>
</svg>
